<svg id="Layer_1" data-name="Layer 1" xmlns="http://www.w3.org/2000/svg" viewBox="0 0 1098.23 345.93"><defs><style>.cls-1{fill:#0277a5;}</style></defs><title>Welcome</title><path class="cls-1" d="M302.75,480.38q37.08,121.92,84.56,240.35,13.31,33.16,27.4,66c2.62,6.1,12.24,4,13.71-1.79l55.46-218.46,15.71-61.86-14.73-2c3,74.94,9.6,151.79,37.55,222.11a353.25,353.25,0,0,0,28.47,56.78,7.6,7.6,0,0,0,13.71-1.79c12.65-41.09,16-84.19,18.36-126.9s4.45-85.18,12.56-127.24A616.15,616.15,0,0,1,614,453.69l-14.46-4a552.21,552.21,0,0,0-15.84,71.7c-3.32,22-6.13,44.34-2.89,66.47,2.86,19.48,11.2,38,27.15,50.12,13.35,10.12,31.29,15.55,47.86,11.36,16.15-4.09,35.39-22.37,24.78-40.07-7.93-13.23-28.13-15.42-40.48-7.53-16.54,10.57-18.74,32.89-19.53,50.62-.5,11.14,1.35,20.84,9.4,29,6.78,6.9,15.6,12.37,24.2,16.69,35.19,17.63,78.69,17.8,113.44-1.11,33.31-18.13,56.43-53.17,61.58-90.54,2.49-18.07,1.75-37.66-9.43-52.93-5.11-7-12.11-12.67-21-13.7-9.46-1.1-18.06,3.7-24.07,10.75-13.43,15.75-22.61,36.47-29.17,55.91a211.14,211.14,0,0,0-10.93,62.87,205,205,0,0,0,1.93,32.09c1.27,9.3,3.07,18.55,7.45,27,4.28,8.23,11.53,14.92,20.73,17.05,10.36,2.39,21.7-.25,32-1.92,19.43-3.13,39.63-8.81,53.56-23.6s18.88-35.4,31.54-51.12c5.46-6.79,12.88-13.37,21.88-14.49,3.36-.42,6.24-2.05,7.23-5.51.83-2.9-.47-7.2-3.45-8.47-22.15-9.45-42.11,11.4-54.86,27.23s-21.82,37.15-14.24,57.54c7.33,19.69,27.37,27.9,47.23,25,20.78-3,36.5-17.46,49.23-33.2,14.63-18.07,28.25-41.24,51.79-48.5,6.66-2.05,7.61-12.91,0-14.46a40,40,0,0,0-40.77,16.17c-8.95,12.74-7.5,30,1.73,42.12,9.84,13,26.27,17.64,41.25,11,14.28-6.33,23.86-22,20.39-37.61-3.92-17.74-22.64-29.46-40.18-25.76l5.78,13.71c10.08-6.85,23.48-1.34,30.47,7.56,9.17,11.65,10.22,28.06,11.38,42.23.64,7.81,13.11,10.9,14.73,2a186.71,186.71,0,0,1,29.28-72.53c1.6-2.38,3.73-6.29,6.72-7.12,2.66-.74,5.08,1.33,6.89,3,5.89,5.49,10.13,13.3,14.34,20.07q7,11.26,13,23.13A300.63,300.63,0,0,1,1121.24,741c2.54,8.45,14,6.23,14.73-2a223,223,0,0,1,11.62-53,129.53,129.53,0,0,1,4.76-12.38,8.92,8.92,0,0,1,1.72-3c-1.16,1-.77-.36.26.69.51.52,1.28.9,1.85,1.39,3.68,3.14,6.14,7.52,8.08,11.89,8.24,18.52,9.06,45.81,31.68,53.36,16.79,5.61,33-5.65,45-16.23a133.18,133.18,0,0,0,29.21-37.06c3.73-7,8.29-15.48,3.32-23-4.12-6.28-12.93-8-19.76-5.85-11.44,3.52-17.33,14.74-17.43,26.18-.13,13.8,7.36,26.79,19.87,32.78,16.87,8.09,35.8,5.4,53.55,2.31,9.49-1.65,5.47-16.11-4-14.46-18,3.12-53.67,7.54-54.42-19.58-.1-3.42.42-7.24,2.54-10a8.45,8.45,0,0,1,2.9-2.44,7.21,7.21,0,0,1,2.49-.68c1.12-.05,2.15.65,1.92,0-.39-1-1.21,1.69-1.39,2.09-.66,1.49-1.42,2.93-2.17,4.37q-2.64,5-5.73,9.83a115.85,115.85,0,0,1-12.79,16.41c-8.32,8.92-21,22.11-34.2,21.81-8.39-.2-13-6.83-16-14-7.41-17.53-8.77-40.3-26.23-51.65-7.34-4.78-16-3.47-21.14,3.71-4.62,6.51-7,15.46-9.5,23A240.13,240.13,0,0,0,1121,739l14.73-2a316.29,316.29,0,0,0-41.31-86.92c-7.6-11.13-20-25.48-34.93-17.22-6.3,3.48-10.33,10.16-14.09,16a194.32,194.32,0,0,0-11.53,20.68A203.92,203.92,0,0,0,1017,721.4l14.73,2c-1.55-19-3.59-40.46-17.6-54.88-11.8-12.14-32-18-46.82-7.86a7.53,7.53,0,0,0,5.78,13.7c11.1-2.34,23.28,8.53,21.9,19.9-1.35,11-14.07,19.56-24.73,16.62s-17.55-15.43-14.89-26c2.86-11.42,16.06-18.74,27.33-16.44V654c-18,5.53-31.63,18.51-43.19,32.83-11.33,14-21.42,30.33-36.58,40.65-11.69,8-28.68,12.23-41.43,4.09-14.23-9.08-12.43-29.3-5.49-42.33,4.9-9.18,12-16.9,19.31-24.17,5.51-5.44,15.91-15.48,24.64-11.76l3.79-14c-17.84,2.23-30.7,14.37-39.89,29.17-9,14.47-14.12,31.85-27,43.62-12.26,11.25-29.77,14.73-45.68,17.21-7.9,1.23-18.19,4.08-25.79.6-6.3-2.88-9.4-10.09-11.24-16.34-4.78-16.18-5.19-34.21-4.29-50.93a196.83,196.83,0,0,1,10.69-53.77c5.66-16.35,13.49-33.7,24.41-47.28,3.82-4.74,9.25-8.88,15.41-6,5.51,2.61,9.26,8.88,11.52,14.3,5.83,14,3.94,31.18.32,45.54a110.73,110.73,0,0,1-20.67,41.9c-20.74,25.94-52,39.89-85.09,38.86a107.88,107.88,0,0,1-46.77-12.15c-7.16-3.77-14.79-8.28-20.19-14.4-5.64-6.39-4.16-15.35-3.62-23.22.8-11.69,3.12-31.44,17.5-34,4.27-.75,9.7-.14,13,2.92,4.51,4.19.38,10.46-3.39,13.79-10,8.79-24.83,7.87-36.25,2.72-14-6.33-23.4-18.21-28-32.7-5.56-17.32-5-35.89-3.16-53.78a501.17,501.17,0,0,1,10.58-61.8q3.5-15.08,7.84-29.93c2.71-9.31-11.52-13.13-14.46-4a620,620,0,0,0-26.69,128.43c-4.21,42.18-4.27,84.66-8.78,126.81-2.57,24-6.82,47.73-13.92,70.78l13.71-1.79c-39.12-62.61-54-136.27-60.24-208.91-1.79-20.76-2.92-41.58-3.74-62.41-.33-8.22-12.59-10.46-14.74-2L429.66,719.08,414,781l13.71-1.79q-49.44-115.35-88.86-234.67-11.21-33.92-21.6-68.1c-2.8-9.21-17.28-5.29-14.46,4Z" transform="translate(-216.88 -444.47)"/><path d="M218.33,453.17a1.5,1.5,0,0,0,0-3,1.5,1.5,0,0,0,0,3Z" transform="translate(-216.88 -444.47)"/></svg>