<svg id="Layer_1" data-name="Layer 1" xmlns="http://www.w3.org/2000/svg" viewBox="0 0 254.74 385.07"><defs><style>.cls-1{fill:#fff;stroke:#0277a5;stroke-miterlimit:10;stroke-width:4px;}</style></defs><title>Welcome2_Mobile</title><path class="cls-1" d="M666.81,58.05c-.54-1.65-1.94-2-3.24-.84-1,.88-1.9,1.84-2.8,2.8a7.56,7.56,0,0,1-6.12,2.58c-1.74-.1-3.5-.42-4.58-2.44a34.24,34.24,0,0,0,7.42-2.57c3.1-1.56,5.59-3.83,6.38-7.28,1.28-5.67-1.5-9.55-6.44-10.32-8-1.25-14.65,4-16.61,11.4a13,13,0,0,0-.47,5.22c.29,1.85-.74,2.89-2,3.88a9.27,9.27,0,0,1-1.78,1c-1.69.84-2.68.25-2.72-1.63-.06-2.85.81-5.56,1.34-8.33a34.36,34.36,0,0,0,1-8.21,3.32,3.32,0,0,0-3.41-3.45,9.68,9.68,0,0,0-6.63,1.8,19.67,19.67,0,0,0-6.58,7.24c-.23.47-.33,1.11-1.06,1.38.07-.5.11-.92.18-1.33a24,24,0,0,0,.59-5.86,2.85,2.85,0,0,0-1.68-2.65c-2.62-1.21-5.08-.67-7.43.71a15.56,15.56,0,0,0-5.29,5c-1.16,1.81-2.68,3.39-3.52,5.43.59-2.7.82-5.45,2-8,.77-1.65.33-3.14-.81-3.56A5.91,5.91,0,0,0,595,43.59a30.32,30.32,0,0,0-.93,3.39c-.68,3.2-.65,3.19-3.87,3.79-1.16.21-1.78,0-2.06-1.39-.88-4.33-3.12-7.8-7.57-9.05-8.19-2.29-15,2.18-17.8,9.43a12.34,12.34,0,0,0-.88,6.12c.31,2.11-.67,3.32-2.33,4.21a15.5,15.5,0,0,1-4.83,2c-4.61.69-7.88-.77-8.21-5.7a14.93,14.93,0,0,1,1.09-6.56,7.13,7.13,0,0,1,2.85-3.1,2,2,0,0,1,2.12-.21c.73.4.59,1.19.47,1.88s-.26,1.13-.37,1.71c-.42,2.34,1.05,3.81,3.43,3.44a4.41,4.41,0,0,0,3.22-2.12c2-3.53,1.69-9.45-3.86-11.24-4.44-1.43-10.77.71-13.93,4.91a17.17,17.17,0,0,0-3.76,8,36.36,36.36,0,0,0-.16,4.3c0,.47.09,1-.28,1.37a8.17,8.17,0,0,1-7,3.09,3.41,3.41,0,0,1-2.52-5.59c3.24-4,5.7-8.41,8.28-12.77a50.1,50.1,0,0,0,3.19-6.55c2.58-6.3,4.31-12.81,3.14-19.75-.88-5.2-4.91-7.78-9.6-6a12.17,12.17,0,0,0-5,3.75,36.16,36.16,0,0,0-4,6.83c-2.47,4.85-3.39,10.26-4.64,15.5a61.84,61.84,0,0,0-1.22,18.27,2.4,2.4,0,0,1-.86,2.09,18.6,18.6,0,0,1-10.5,4.94c-2.24.26-4.45-.14-6.05-2.28,2.08-.72,4.09-1.25,6-2.09,5.11-2.3,8-5.23,7.63-11.39a6.93,6.93,0,0,0-5-6.46,14.15,14.15,0,0,0-10.64,1.26c-.46.24-.87.75-1.44.54-1.62-.59-3.28-.22-4.92-.34a15.5,15.5,0,0,1-4.13-.56,52.9,52.9,0,0,1,1.56-5.7,23.36,23.36,0,0,0,1.09-12.82c-.57-3.12-2.41-5.95-5.75-6.83-8.14-2.17-13.6,2.51-15.52,9.89a19.15,19.15,0,0,0-.36,6.36,17.18,17.18,0,0,0,5.17,11,21.48,21.48,0,0,0,2.74,2c-.73,2.67-2.53,4.55-3.75,6.77A24.42,24.42,0,0,1,467,58.8c-3.32,2.76-7.41,1.7-8.71-2.46A31.6,31.6,0,0,1,457.09,48a125.42,125.42,0,0,1,1.74-27.36,3.36,3.36,0,0,0-2.38-4.15c-3.31-.75-7.09.53-7.8,4.53a115,115,0,0,1-4.1,17.44c-1.87,5.43-3.67,10.85-6.66,15.8a20,20,0,0,1-4.26,5.08c-1.88,1.58-3.83,1.2-5-1a15.88,15.88,0,0,1-1.6-4.83c-1.35-8.29-.69-16.56.18-24.83.31-2.91,1-5.78,1-8.72a3.22,3.22,0,0,0-2-3.3,5.62,5.62,0,0,0-7.91,4.14,107.31,107.31,0,0,0-1.46,11.71,85.28,85.28,0,0,0,.32,20.07c.63,4.25,1.52,8.41,4.08,12.08s6.55,5.4,11,4.23,7.73-4.13,10.27-7.82a41.84,41.84,0,0,0,5.38-9.9c.12-.37.15-.85.62-1.05.38.29.17.69.19,1a34.68,34.68,0,0,0,3.84,13.34c2,3.93,6.89,5.23,10.51,4.57,5.21-1,9.08-4.07,12.53-7.68a42.2,42.2,0,0,0,8.16-11.52,8.1,8.1,0,0,1,.61-1.12,1.27,1.27,0,0,1,1.18-.67c2.08.26,4.17.55,6.29.84-.35,1.48-.7,2.86-1,4.26a14.76,14.76,0,0,0-.11,4.3c.46,5.84,3.16,9.13,8.23,10.78,6.85,2.22,13.34.91,19.18-3.36a5.07,5.07,0,0,1,2.21-1.2c1,1.57,1.9,3.34,3.63,4.18a13,13,0,0,0,13.2-.87c1.11-.69,2.19-1.42,3.28-2.13.62.58,1.13,1.12,1.72,1.58A8.07,8.07,0,0,0,544,67.67c6.69,2.78,13,1.74,19-2.1a3.71,3.71,0,0,1,1.69-.85,12.4,12.4,0,0,0,13.67,3.9C583.6,67,586.58,63.2,587.89,58c.84-.1,1.58-.16,2.31-.28a4.71,4.71,0,0,1,2.39,0c0,1.39,0,2.82,0,4.25a10.6,10.6,0,0,0,1,4.56c.86,1.75,2,2.83,4.06,2.71s3.2-.83,3.92-3.08,1.32-4.54,2.25-6.74a49.76,49.76,0,0,1,3.53-7.67A3.53,3.53,0,0,1,610,49.86a3.42,3.42,0,0,1,.17,2.1q-.43,4.13-1,8.25a12.38,12.38,0,0,0,.78,6.57,3.64,3.64,0,0,0,3.44,2.44c1.63,0,3.15-.25,3.93-1.86a22.32,22.32,0,0,0,1.61-3.91c1.15-4.46,2.77-8.7,5.81-12.26.48-.57.82-1.41,1.87-1.29a16,16,0,0,1-.5,5.4c-.44,2.56-1.12,5.1-.91,7.73.3,3.8,2.32,5.87,6,6.17a14.52,14.52,0,0,0,5.19-.6c2.54-.72,4.51-2.3,6.55-4,3.17,4,7.46,4.91,12.09,4.62,4.34-.27,8.24-1.69,10.79-5.52A6.24,6.24,0,0,0,666.81,58.05ZM482,30.8a45.28,45.28,0,0,1-2,7.72,7.24,7.24,0,0,1-3-4.07,14.36,14.36,0,0,1-.14-8.63,5.87,5.87,0,0,1,1-2,2.47,2.47,0,0,1,2.58-.86c1,.17,1.34,1,1.58,1.81A13.5,13.5,0,0,1,482,30.8Zm16.94,23.75a9.76,9.76,0,0,1,3.38-7.49,2.7,2.7,0,0,1,3.52-.31c1.29.93,1.06,2.33.53,3.61C505.51,52.37,501.32,54.73,498.92,54.55Zm27.4-7.29c.6-6,.91-12.12,2.86-18,1-2.86,1.49-5.87,2.68-8.67A22,22,0,0,1,533,18.32c.32-.57.72-1.12,1.49-1s1.16,1,1.22,1.67a29.16,29.16,0,0,1-.13,7.17c-.94,5.89-3.48,11.22-6,16.55a44.92,44.92,0,0,1-2.89,4.65Zm53.84,10.63c-.94,3.07-3.86,5-6.37,4-2.27-.86-2.84-2.91-3.11-5a12.87,12.87,0,0,1,1-6.87,5.12,5.12,0,0,1,4.57-3.24c.31,1.51-.05,3,.38,4.35a7.61,7.61,0,0,0,2.91,4.41C580.48,56.2,580.45,56.93,580.16,57.89Zm70.5-9.4A4.61,4.61,0,0,1,652,47.11c1.15-.69,2.46-1.29,3.68-.31s1,2.4.4,3.65c-1.37,2.86-4.23,3.37-7,4.45A11,11,0,0,1,650.66,48.49Z" transform="translate(-414.37 -8.62)"/><path class="cls-1" d="M579.21,333.84c-2.79,1.22-4.43,3.49-6,5.74a40.8,40.8,0,0,0-5.09,11.8,74.77,74.77,0,0,0-3,26.66,2.35,2.35,0,0,1-.86,2.1c-1,.84-2,1.65-2.91,2.48a6.82,6.82,0,0,1-5.19,1.63A3.42,3.42,0,0,1,553,382.2c-.53-1.24-.8-2.45.34-3.52,2.54-2.4,4-5.57,5.9-8.42A64.55,64.55,0,0,0,565,359.11c2.48-6.15,4.13-12.52,3-19.31-.86-5.42-4.34-7.83-9.55-6.23-2.57.8-4.38,2.74-5.91,4.88a43.67,43.67,0,0,0-4.27,8.33c-2.58,6-3.22,12.53-4.49,18.87-.81,4-.48,8.17-.37,12.27,0,.53.19,1.09-.22,1.54-1.76,1.93-3.54,3.84-6.31,4.31a3.77,3.77,0,0,1-4.4-2.72c-.77-2.57-.35-5.18-.11-7.76a88.94,88.94,0,0,1,2.77-13.51c.49-2,1-3.93,1.44-5.89.58-2.38-.15-3.92-2.2-4.36a10.82,10.82,0,0,0-4.9.07,3.31,3.31,0,0,0-2.64,2.84,116.09,116.09,0,0,1-3.35,13.71c-1.57,4.92-3,9.83-6.28,14-3.42,4.36-8.34,4.9-12.6,1.4-1.69-1.39-2.09-3.32-2.33-5.22a29,29,0,0,1,4-18.93,22.65,22.65,0,0,1,7.22-7.29,18.94,18.94,0,0,1,5.61-2.61,32.92,32.92,0,0,1,14.24-.62c1.89.32,3.77.69,5.68.84a4.1,4.1,0,0,0,4.35-3c.78-2.32,0-3.77-2.37-4.44A42.82,42.82,0,0,0,533.7,339c-11-1.07-21.08,1-29.84,8-5,4-8.21,9.4-10.31,15.39-1.41,4-1.62,8.2-1.65,12.44-.08,8.19,5.23,15.55,13.77,16.68,4.89.65,9.26-.39,13-3.92a17.81,17.81,0,0,0,3.45-4.43,2.67,2.67,0,0,1,.67,1.47,9.53,9.53,0,0,0,5.67,6.1c5.23,1.83,10.27,1.26,14.68-2.45.88-.73,1.81-1.4,2.74-2.11,1,1.27,1.68,2.74,3.11,3.65,4.53,2.87,9,2.24,13.43-.14A17.75,17.75,0,0,0,567.1,386c1.75,2.38,3.54,4.39,6.31,5.16a13.39,13.39,0,0,0,10.74-1.56,5.39,5.39,0,0,0,2.85-4.85c0-1.16-.09-2.38-1.18-3s-2.11.09-3,.8a6.94,6.94,0,0,1-5,1.71,3.66,3.66,0,0,1-3.09-2.2,3,3,0,0,1,.34-3.52A105.29,105.29,0,0,0,585,362.49a74,74,0,0,0,3.77-10.1,23.71,23.71,0,0,0,.76-13.25C588.27,334.2,584.26,331.63,579.21,333.84Zm-26.47,27.49a98.06,98.06,0,0,1,4.7-18.29,6.67,6.67,0,0,1,1.87-2.88c.8-.72,1.3-.48,1.73.36a5.28,5.28,0,0,1,.41,2.18A30.67,30.67,0,0,1,559.31,356a86.08,86.08,0,0,1-4.86,10.67c-.62,1.08-1.41,2.06-2.13,3.09A31.54,31.54,0,0,1,552.74,361.33Zm29.85-13.23a43.21,43.21,0,0,1-3.38,11.76c-1.51,3.26-3.3,6.39-5,9.57-.14.26-.25.63-.88.43-.34-2.89.61-5.69,1-8.54a121.27,121.27,0,0,1,2.76-13.57,35.5,35.5,0,0,1,2.87-6.66c.31-.63.66-1.53,1.58-1.31s1.06,1.06,1.1,1.79A31,31,0,0,1,582.59,348.1Z" transform="translate(-414.37 -8.62)"/><path class="cls-1" d="M594.15,225.93c-3.21,1-5.09,3.41-6.35,6.09a62.67,62.67,0,0,0-5.57,20.13c-.18,1.66-.62,2.39-2.31,2.72-7.66,1.5-14.25,8.63-14.7,16.55-.18,3-2.41,4.06-4.49,5.19-1.34.74-2.66-.32-2.61-1.89a10.75,10.75,0,0,1,.4-3,52.69,52.69,0,0,0,2.36-11.83c.31-4-1.28-5.42-5.33-5.07a6.82,6.82,0,0,0-1.1.18c-3.89,1-6.63,3.48-8.83,6.64-1.14,1.63-2.52,3.13-3.56,4.95.37-1.65.69-3.32,1.14-5a10,10,0,0,1,1-3c.7-1.12.38-3-.36-3.46-2.3-1.36-6.8,0-7.67,2.46-1.33,3.79-2.62,7.68-2.63,11.7a6.39,6.39,0,0,1-3.39,5.82c-3.19,2-7.36,1.66-7.62-3.19a44.65,44.65,0,0,1,1-11.38c1-4.73,2.22-9.4,3.38-14.09.62-2.5-.16-4.11-2.39-4.51a11.38,11.38,0,0,0-4.75.14,3.21,3.21,0,0,0-2.55,2.74,111.51,111.51,0,0,1-3.82,15.25c-1.35,3.91-2.5,7.87-4.95,11.31-1.63,2.3-3.51,4.14-6.33,4.74-2,.43-4.05.45-5.81-.87a9.21,9.21,0,0,1-3.75-6.55c-.92-7.34,1-14,4.93-20.12a20,20,0,0,1,6.32-6c6-3.73,12.56-4.34,19.38-3.35,2.05.3,4.09.74,6.15.93a4,4,0,0,0,4.28-2.64c1.14-2.55.43-4.09-2.29-4.82a48.59,48.59,0,0,0-17.41-1.23,36.33,36.33,0,0,0-20,8.2c-4.83,4-7.87,9.25-10,15A34.28,34.28,0,0,0,482.28,268c.23,6.51,3,11.51,8.9,14.51,5.42,2.75,13.1,2.13,17.7-2.36a30.28,30.28,0,0,0,3.68-4.64c.18.52.3.87.43,1.21,1.29,3.47,3.46,6.07,7.21,6.94,4.57,1.07,8.88.5,12.66-2.49.85-.68,1.33-.68,1.72.44A3.63,3.63,0,0,0,537,284a4,4,0,0,0,5.26-2.56,78.05,78.05,0,0,1,4-10.52,16,16,0,0,1,2-3.62c.8-.94,1.41-2.34,3-2.53a10,10,0,0,1-.12,3c-.53,3.19-1.45,6.33-1.37,9.62.11,4.4,2.37,6.66,6.75,6.75a15.56,15.56,0,0,0,10.06-3.77c5.53,5.27,10.3,5.14,16.54-.42,1,.48,1,1.52,1.48,2.31a4.79,4.79,0,0,0,6,2c1.88-.75,2.33-2.15,1.56-4.84-.7-2.46-1-5-1.55-7.5a4.77,4.77,0,0,1,.7-3.76c.86-1.33,1.71-2.69,2.43-4.07,2.06-4,4-8.07,5.76-12.21a45,45,0,0,0,3.35-12.94,19.78,19.78,0,0,0-.69-9.16A6.25,6.25,0,0,0,594.15,225.93Zm-17.7,51.53c-1.91-.09-3.16-3-2.86-4.68a18.41,18.41,0,0,1,3.06-8.06,12.16,12.16,0,0,1,4.83-3.38,95.72,95.72,0,0,0,.36,11.11C582,274.52,578.52,277.54,576.45,277.46Zm17.17-26a44.31,44.31,0,0,1-3.22,7.13c.13-7.71,2.14-24.85,5.31-26.3a5.17,5.17,0,0,1,1,3.66A39,39,0,0,1,593.62,251.43Z" transform="translate(-414.37 -8.62)"/><path class="cls-1" d="M503.3,176.58c12.31.94,21.63-5,26.8-15.38,3.27-6.55,3.81-13.68,2.89-20.88a17,17,0,0,0-3.64-8.92c-4.53-5.4-10.45-7.8-17.45-7.6-10.77.31-18.49,5.59-23.49,14.89-2.67,5-3.48,10.46-3.52,16.06,0,.48,0,1,0,1.44.26,5.55,1.53,10.63,5.73,14.72A19.84,19.84,0,0,0,503.3,176.58Zm-4.74-37.19c3.22-5.21,7.88-8.25,14.28-7.78,5,.36,8.86,4.09,9.79,9.41,1.15,6.56.66,13.08-2.46,19s-7.63,9.45-15.35,8.85c-4.56-.35-8.29-4.16-9.3-9.17a24.57,24.57,0,0,1-.44-5.18C495,148.81,495.83,143.8,498.56,139.39Z" transform="translate(-414.37 -8.62)"/><path class="cls-1" d="M547.62,149.29c.07-1.26-.39-1.86-1.69-2-4.21-.36-6.51,1.29-7.57,5.57a51.38,51.38,0,0,0-1.36,7.69,43.72,43.72,0,0,0,.3,12.25c.63,3.23,3,4.49,6.2,3.5,2.11-.67,2.41-2.47,2.78-4.11a42.21,42.21,0,0,1,5.45-12.47,16.72,16.72,0,0,1,1.22-1.68,1.37,1.37,0,0,1,1.81-.58,6.8,6.8,0,0,1-.15,2.84c-.72,3.13-1.66,6.2-1.7,9.49a6.77,6.77,0,0,0,6.92,6.91c4.3,0,7.77-1.8,11-4.55a12.71,12.71,0,0,0,2.72,2.47c5.25,3.2,15.12,2.8,19.44-2.5a8.54,8.54,0,0,0,2.14-5.26,2.52,2.52,0,0,0-1.48-2.76,2.45,2.45,0,0,0-2.91,1.13,15.61,15.61,0,0,1-3.55,3.38c-3,2.24-7.41,1.83-9.3-1a25.12,25.12,0,0,0,6.06-1.95c5.18-2.3,8.34-5.17,7.87-11.52a6.44,6.44,0,0,0-3.26-5.54c-5.32-2.87-11.91-1.1-15.78,3a15.79,15.79,0,0,0-4.67,12c.17,2.75-1.37,4-3.25,5.29a2.36,2.36,0,0,1-2.58.22c-.83-.5-.76-1.46-.7-2.31.15-2.13.76-4.19,1-6.29.43-3.14,1.85-6.08,1.72-9.32a4,4,0,0,0-3.54-3.81A9.53,9.53,0,0,0,555,148.6c-3.69,2.08-6.14,5.28-8.23,8.83-.34.57-.44,1.28-1.2,1.85.23-1.22.42-2.26.62-3.29C546.62,153.74,547.5,151.6,547.62,149.29Zm32.06,5.52c1.39-1.16,3.24-1.33,4.32-.28.91.9.55,2.75-.57,4.1a10.7,10.7,0,0,1-6.72,3.6C576.8,159.2,577.4,156.69,579.68,154.81Z" transform="translate(-414.37 -8.62)"/></svg>