<?xml version="1.0" encoding="utf-8"?>
<!-- Generator: Adobe Illustrator 22.1.0, SVG Export Plug-In . SVG Version: 6.00 Build 0)  -->
<svg version="1.1" id="Layer_1" xmlns="http://www.w3.org/2000/svg" xmlns:xlink="http://www.w3.org/1999/xlink" x="0px" y="0px"
	 viewBox="0 0 1247.4 406.2" style="enable-background:new 0 0 1247.4 406.2;" xml:space="preserve">
<style type="text/css">
	.st0{fill:#FFFFFF;}
	.st1{fill:#FFFFFF;stroke:#0277A5;stroke-width:7;stroke-miterlimit:10;}
</style>
<title>Welcome2</title>
<path class="st0" d="M788.6,204.8c-0.3,17.8,4.9,32.7,17.2,46.6c5.6,6.3-2.7,17.2-8.9,24s-15.3,9.4-22.9,4.1
	c-17-11.6-15.1-29.5-12.3-46.8S772.9,206.7,788.6,204.8z"/>
<path class="st0" d="M1115.7,251.3c0.3-14.4,2.9-27.1,12.3-37.4c5.5-6,12.9-9.4,20.3-4.1c7.7,5.4,6.4,13.5,2.5,20.5
	C1143.2,243.5,1130.4,248.2,1115.7,251.3z"/>
<path class="st1" d="M1074.1,267.9c-1.1,1-2.1,2.1-3,3.3c-2.9,3.6-6.1,7.1-9.4,10.4c-7.5,7.4-16.6,9.2-26.5,7.2
	c-5.7-1-10.6-4.9-12.9-10.2c1.3-0.4,2.3-0.8,3.3-1c8.6-2.1,16.9-5.2,24.7-9.2c16.1-8.6,24.8-21.6,23.9-40.4
	c-0.6-12.5-8.4-22.9-20.5-25.9c-13-3.5-26.9-0.9-37.9,7c-19.1,13.4-26.5,32.7-26.4,55.3c0.1,9.2,0.5,9.2-6.3,15.5
	c-0.8,0.7-1.6,1.4-2.5,2.1c-2.2,2-4.8,3.6-7.6,4.7c-5.2,1.6-8.5-0.3-9.6-5.6c-0.4-2.4-0.4-4.8-0.1-7.2c1-9.1,3.1-18,5-27
	c1.9-9.3,3.8-18.6,4.5-28.1c1.1-12.8-5.6-19.4-18.3-18c-6.7,0.8-12.4,3.7-17.7,7.6c-10.8,7.8-18.4,18.2-24.7,29.7
	c-2.8,5.2-5.3,10.7-7.8,16.4c-0.3-0.9-0.3-1.8,0-2.7c1.5-7.2,3.1-14.3,4.5-21.5c1.2-6.3,2.5-12.6,1.3-19.1c-0.9-4.5-2.9-8.2-7.7-9.6
	c-4.1-1.3-8.4-1.4-12.6-0.4c-9.2,2.4-16.5,7.8-22.8,14.7c-8,8.9-14.4,19-19,30c-1.4,3.3-2.8,6.7-4.1,10c0.2-6.2,1-12.4,2.4-18.5
	c2.2-9.4,4.5-18.8,6.5-28.2c1.3-6-0.5-8.1-6.5-8.7c-0.2,0-0.5-0.1-0.7-0.1c-10.7,0.1-18.9,2-22.6,15.8c-2.2,7.6-4,15.3-5.3,23.1
	c-0.2,1.1-0.5,1.8-1.7,2c-5,1-10,1.9-15,2.4c-2.2,0.2-3-0.6-3.2-2.6c-0.9-7.1-3.2-13.9-6.8-20.1c-6.9-12.1-17.1-19.5-31.2-20.4
	c-20.4-1.3-36,7.3-47,24.3c-8.8,13.7-11.1,29.1-9.9,45c0.2,1.4-0.3,2.8-1.4,3.6c-5.3,4.7-11.2,8.7-17.7,11.6
	c-6.7,2.9-13.6,4.3-20.9,2.9c-7.9-1.5-13.5-5.7-16.2-13.5c-2.2-6.2-2.3-12.6-1.9-19c0.7-9.3,3.2-18.1,9.3-25.4
	c2.7-3.2,6-5.7,10.6-5.9c4.4-0.2,6.5,1.8,6.6,6.1c0.1,3.5-1.2,6.7-1.9,10c-1.7,8.1,3.3,13.3,11.5,11.7c4.3-0.8,8.1-3.5,10.2-7.4
	c3.8-6.5,4.7-13.6,3.8-21c-1.5-11.9-9.9-21.9-23.2-22.9c-20-1.4-34.9,7.6-45.8,23.6c-9.7,14.2-12.6,30.2-11.4,47.1
	c0.2,0.7,0,1.5-0.5,2.1c-4.8,5-9.9,9.8-16.7,12c-4.9,1.6-10.2,2.4-15.2,0.3c-5.6-2.4-7.3-7.7-8.9-13.1c-0.8-2.4-0.3-5.1,1.3-7.1
	c16.9-23.2,31.2-48,42.1-74.6c7.5-18.5,13.3-37.5,14.4-57.6c0.5-9.9,0-19.6-3.2-29.1c-5.4-16.1-18.3-21.7-33.8-14.7
	c-8.8,4-14.7,11-19.6,19c-10.8,17.5-17.6,36.7-22.5,56.6c-5.1,20.9-8.5,42.1-9.9,63.6c-0.9,11.1-0.8,22.3,0.5,33.4
	c0.3,2.3,0.1,4-1.7,5.8c-9.1,8.8-19.5,15.6-31.6,19.5c-7.6,2.6-15.7,2.7-23.3,0.2c-4.7-1.5-8.7-4.8-10.9-9.2
	c1.4-0.4,2.6-0.8,3.8-1.1c9.9-2.7,19.6-6,28.3-11.6c12.6-8.1,19.8-19.5,19.8-34.8c0-16-9.2-27.7-24.1-30c-12.2-2-24.8,1-34.9,8.2
	c-1.5,1.1-2.6,1.3-4.1,0.4c-1.4-0.6-2.9-0.9-4.4-0.9c-6.6-0.3-13.1-0.6-19.7-1c-3.4-0.2-6.8-0.7-10.2-1.5c4.3-12,7.6-24.3,9.7-36.8
	c1.8-11.1,2.9-22.3,1.2-33.6c-1.5-10-5.1-19-13.6-25c-12.4-8.8-25.5-7.3-38.4-1.2c-9.4,4.4-15.4,12.3-19.4,21.7
	c-6.1,14.4-6.8,29.4-4.7,44.6c2,14,7.7,26.3,18,36.2c3.2,3,6.6,5.6,10.2,8c-0.1,0.4-0.1,0.7-0.2,1.1c-7,15.1-15.1,29.7-25.8,42.6
	c-4.4,5.4-9.2,10.3-15.2,13.9c-10.4,6.2-21.3,3-26.6-7.8c-1.7-3.5-2.9-7.3-3.8-11.1c-2.4-10.6-2.8-21.4-3.2-32.3
	c-1.1-29.1,0.4-58.2,4.5-87c0.9-5.9,2.4-11.8,2.3-17.8c-0.2-8.1-3.5-12.1-11.6-12.7c-14.7-1.1-20.9,4.8-23.4,17.1
	c-1.1,5.5-2,11-3,16.4c-5.2,27.3-11.7,54.1-21.5,80.2c-5.8,15.4-12.1,30.5-21.9,43.9c-3.6,4.8-7.3,9.6-12.6,12.6
	c-4.4,2.5-8.7,1.9-12.3-1.6c-3.3-3.1-5.1-7.1-6.6-11.3c-4.7-13-5.9-26.6-6.4-40.3c-1-29.2,1.8-58.1,5.7-86.9
	c0.8-5.9,2-11.8,1.7-17.9c-0.3-6.4-3.4-10.6-9.2-11.8c-4.1-0.9-8.3-0.9-12.4,0c-4.8,1-8.9,4.3-10.6,8.9c-1.3,3.2-2.2,6.6-2.7,10.1
	c-3.4,22.1-5.5,44.5-6.3,66.9c-0.7,23.2,0.2,46.3,5.3,69.1c2.6,11.3,6,22.3,12.4,32.2c4.9,7.5,11.2,13.4,20.2,15.7
	c10.4,2.7,20.2,0.5,29.3-4.7c11.7-6.6,20.2-16.5,27.4-27.6c9.1-14,15.6-29.2,21.2-44.8c0.4-1,0.8-2,1.2-3c0.5,1.1,0.7,2.3,0.7,3.6
	c0.4,10.7,1.8,21.4,4.1,31.9c2.5,11.3,5.9,22.2,12.6,31.8c6,8.4,14.1,13.3,24.5,13.8c11.9,0.5,22.4-3.5,32.1-9.9
	c13.8-9.1,24.5-21.2,34.2-34.3c8.4-11.4,15.6-23.6,21.6-36.4c0.9-1.9,1.9-2.4,3.8-1.9c1.9,0.4,3.9,0.8,5.9,1
	c6.6,0.9,13.2,1.4,19.8,1.5c0.1,0.2,0.1,0.4,0.1,0.6c-0.1,0.3-0.2,0.6-0.4,0.9c-5.1,12-6.7,25.3-4.7,38.2c1.6,11,6.2,20.5,14.5,28
	c10.9,9.8,24.3,12.6,38.3,12.4c16.3-0.2,30.9-5.9,44-15.5c3.4-2.5,6.6-5.2,10-8c0.7,1.4,1.2,2.4,1.7,3.4c4.2,8.2,10,14.9,19,17.9
	c13.3,4.4,26,2.2,38-4.6c5.4-3.1,10.1-7.2,14.7-11.4c0.2,0.1,0.3,0.1,0.4,0.2c0.3,0.3,0.5,0.6,0.8,1c5.2,6.9,12.6,11.9,20.9,14.3
	c20.9,6.1,40.1,1.6,58.1-10c3.1-1.9,5.9-4.1,8.6-6.5c0.9,1.2,1.6,2.2,2.4,3.2c4.3,5.3,9.3,10,15.7,12.4c17.6,6.6,34,4.6,48.5-8.1
	c8.8-7.7,14.3-17.4,17.3-28.6c1.2-4.2,1.1-4.2,5.5-4.3c3.5-0.2,7-0.6,10.4-1.2c1.2-0.3,2.5-0.4,3.8-0.2c-0.3,7.6,0,15.2,0.7,22.8
	c0.6,5.4,1.4,10.8,3.8,15.7s6.3,7.7,11.9,7.6c5.9,0,10.7-1.9,13.3-7.8c1.4-3.4,2.6-6.8,3.5-10.4c3.8-15.2,8.7-30,16-44
	c2.5-4.7,5-9.4,9.3-12.9c1.2-1,2.6-1.7,4.1-1s1.5,2.3,1.5,3.7c-0.1,4.8-0.6,9.6-1.2,14.4c-1.1,9.7-2.7,19.3-3,29.1
	c-0.2,7.1,0.5,14,3.6,20.5c2.5,5.2,6.3,8.3,12.2,8.3c6.4,0.1,11.4-2.1,13.9-8.4c1.2-2.9,2.2-5.9,2.9-9c2.8-12,6.9-23.7,12.2-34.8
	c3.7-7.7,7.7-15.4,13.8-21.6c1.4-1.4,3-3.1,5.2-2.2s1.7,3.2,1.6,5.1c-0.3,7.2-2.1,14.1-3.3,21.2c-1.6,9-3.5,18-2.8,27.2
	c1.1,13.8,9.2,21.9,23,22.4c10.7,0.5,21.2-2.7,29.8-9c3.9-2.9,7.6-6.1,11.3-9.3c8.1,9.7,13,13.2,22.8,16.2c7.2,2,14.8,2.7,22.3,2
	c15.8-1.2,28.7-7.7,37.7-20.9c4.5-6.3,5.8-14.3,3.6-21.7C1083.1,265.7,1078,264.4,1074.1,267.9z M411.5,156.4
	c-1,13.6-4.6,26.5-9.2,39.7c-6.3-4.6-10.9-11.2-13-18.8c-3-10.6-3.1-21.7-0.2-32.3c0.8-3.4,2.5-6.6,4.9-9.1
	c5.4-5.7,12.7-4.4,15.6,2.8C412,144.3,411.9,150.4,411.5,156.4z M480.1,229.7c2.3-2.9,5.6-4.8,9.2-5.6c6.3-1.4,11.6,2.7,11.8,9.1
	c0.2,5-1.6,9.8-5.1,13.4c-6.8,7.1-15.6,10.6-25.4,13C470.9,248.5,473,238.4,480.1,229.7z M571.1,235.3l-0.5-0.1
	c0.2-4.9,0.3-9.8,0.7-14.6c1.8-25.7,6.2-51.1,12.9-75.9c2.4-8.7,5-17.4,9-25.6c1.1-2.5,2.6-4.9,4.5-6.9c2.8-2.7,5.7-2.3,7.5,1.1
	c2,3.7,2.3,7.8,2.5,11.9c0.6,19.3-3.7,37.7-10.2,55.6c-6.8,18.5-15.3,36.4-25.5,53.2C571.6,234.5,571.3,234.9,571.1,235.3
	L571.1,235.3z M770.5,264.8c-1.4,6.5-3.2,12.8-8.1,17.6c-9.7,9.6-22.8,6.5-27.3-6.6c-4.8-13.1-3.6-27.7,3.2-39.8
	c3.6-6.7,9.4-10.6,17.7-10.3c-1.9,11.9,0.4,22.4,7.8,31.7c1.6,1.9,3.4,3.6,5.4,5.1C769.9,263.2,770.8,263.7,770.5,264.8L770.5,264.8
	z M1020,259.3c-0.5,0.3-1.2,0.2-1.7-0.2c0.2-11.2,2.5-21.9,10.7-30.5c2.5-2.7,5.9-4.2,9.5-4.4c6.4-0.4,10.7,4.1,10.2,10.6
	c-0.5,6.7-3.9,11.6-8.9,15.5C1034,254.9,1027.2,257.5,1020,259.3L1020,259.3z"/>
</svg>
